<svg width="757" height="406" viewBox="0 0 757 406" fill="none" xmlns="http://www.w3.org/2000/svg">
<rect width="757" height="406" fill="#353433"/>
<rect x="27" y="161" width="84" height="84" rx="10" fill="#454443" stroke="#8B8685" stroke-width="4"/>
<rect x="59" y="287" width="84" height="84" rx="10" fill="#454443" stroke="#8B8685" stroke-width="4"/>
<rect x="91" y="35" width="84" height="84" rx="10" fill="#454443" stroke="#8B8685" stroke-width="4"/>
<path d="M95 132C95 130.895 94.1046 130 93 130H75C73.8954 130 73 130.895 73 132C73 133.105 73.8954 134 75 134H91V150C91 151.105 91.8954 152 93 152C94.1046 152 95 151.105 95 150V132ZM72.4142 155.414L94.4142 133.414L91.5858 130.586L69.5858 152.586L72.4142 155.414Z" fill="#8B8685"/>
<path d="M90 277C91.1046 277 92 276.105 92 275V257C92 255.895 91.1046 255 90 255C88.8954 255 88 255.895 88 257V273H72C70.8954 273 70 273.895 70 275C70 276.105 70.8954 277 72 277H90ZM69.5858 257.414L88.5858 276.414L91.4142 273.586L72.4142 254.586L69.5858 257.414Z" fill="#8B8685"/>
<path d="M111.73 143.289L109.691 151H106.211L102.93 138.32H106.023L107.641 145.82C107.719 146.18 107.797 146.543 107.875 146.91C107.953 147.277 108.031 147.645 108.109 148.012C108.188 147.637 108.258 147.262 108.32 146.887C108.383 146.512 108.465 146.141 108.566 145.773L110.559 138.32H114.086L116.031 145.773C116.086 145.977 116.152 146.266 116.23 146.641C116.316 147.008 116.41 147.465 116.512 148.012C116.598 147.637 116.68 147.266 116.758 146.898C116.844 146.523 116.926 146.148 117.004 145.773L118.668 138.32H121.715L118.387 151H114.906L112.891 143.266C112.844 143.086 112.773 142.781 112.68 142.352C112.586 141.914 112.473 141.352 112.34 140.664C112.238 141.102 112.141 141.539 112.047 141.977C111.953 142.414 111.848 142.852 111.73 143.289ZM126.602 140.852C127.047 139.883 127.605 139.18 128.277 138.742C128.949 138.305 129.75 138.086 130.68 138.086C132.023 138.086 133.055 138.5 133.773 139.328C134.492 140.156 134.852 141.367 134.852 142.961V151H131.57V143.898C131.57 142.781 131.383 141.945 131.008 141.391C130.633 140.836 130.066 140.559 129.309 140.559C128.512 140.559 127.867 140.902 127.375 141.59C126.891 142.27 126.648 143.145 126.648 144.215V151H123.355V133.609H126.648V138.355C126.648 138.637 126.645 138.918 126.637 139.199C126.629 139.48 126.617 139.758 126.602 140.031C126.594 140.305 126.578 140.578 126.555 140.852H126.602ZM150.074 144.648C150.074 146.703 149.504 148.316 148.363 149.488C147.223 150.652 145.645 151.234 143.629 151.234C141.652 151.234 140.102 150.648 138.977 149.477C137.852 148.305 137.289 146.695 137.289 144.648C137.289 142.609 137.852 141.008 138.977 139.844C140.102 138.672 141.676 138.086 143.699 138.086C145.77 138.086 147.348 138.652 148.434 139.785C149.527 140.91 150.074 142.531 150.074 144.648ZM146.629 144.648C146.629 143.141 146.383 142.047 145.891 141.367C145.398 140.688 144.684 140.348 143.746 140.348C142.746 140.348 141.996 140.707 141.496 141.426C140.996 142.137 140.746 143.211 140.746 144.648C140.746 146.062 140.988 147.141 141.473 147.883C141.965 148.617 142.672 148.984 143.594 148.984C144.609 148.984 145.367 148.625 145.867 147.906C146.375 147.18 146.629 146.094 146.629 144.648ZM155.992 133.609V151H152.699V133.609H155.992ZM162.098 145.293C162.098 146.527 162.324 147.461 162.777 148.094C163.238 148.719 163.891 149.031 164.734 149.031C165.312 149.031 165.785 148.906 166.152 148.656C166.527 148.398 166.789 148.02 166.938 147.52L170.043 147.789C169.145 150.086 167.32 151.234 164.57 151.234C162.664 151.234 161.199 150.672 160.176 149.547C159.152 148.414 158.641 146.766 158.641 144.602C158.641 142.508 159.16 140.898 160.199 139.773C161.238 138.648 162.711 138.086 164.617 138.086C166.438 138.086 167.828 138.691 168.789 139.902C169.75 141.105 170.23 142.871 170.23 145.199V145.293H162.098ZM167.043 143.23C166.98 142.207 166.734 141.441 166.305 140.934C165.875 140.418 165.297 140.16 164.57 140.16C163.797 140.16 163.199 140.43 162.777 140.969C162.363 141.508 162.145 142.262 162.121 143.23H167.043ZM185.441 150.812C184.645 151.078 183.719 151.211 182.664 151.211C181.695 151.211 180.949 150.949 180.426 150.426C179.902 149.895 179.641 149.094 179.641 148.023V140.547H178.035V138.32H179.805L180.836 135.344H182.898V138.32H185.301V140.547H182.898V147.133C182.898 147.75 183.016 148.207 183.25 148.504C183.484 148.793 183.848 148.938 184.34 148.938C184.574 148.938 184.941 148.883 185.441 148.773V150.812ZM199.457 144.648C199.457 146.703 198.887 148.316 197.746 149.488C196.605 150.652 195.027 151.234 193.012 151.234C191.035 151.234 189.484 150.648 188.359 149.477C187.234 148.305 186.672 146.695 186.672 144.648C186.672 142.609 187.234 141.008 188.359 139.844C189.484 138.672 191.059 138.086 193.082 138.086C195.152 138.086 196.73 138.652 197.816 139.785C198.91 140.91 199.457 142.531 199.457 144.648ZM196.012 144.648C196.012 143.141 195.766 142.047 195.273 141.367C194.781 140.688 194.066 140.348 193.129 140.348C192.129 140.348 191.379 140.707 190.879 141.426C190.379 142.137 190.129 143.211 190.129 144.648C190.129 146.062 190.371 147.141 190.855 147.883C191.348 148.617 192.055 148.984 192.977 148.984C193.992 148.984 194.75 148.625 195.25 147.906C195.758 147.18 196.012 146.094 196.012 144.648ZM205.375 144.203V151H202.082V141.156C202.082 140.477 202.07 139.922 202.047 139.492C202.031 139.055 202.012 138.664 201.988 138.32H205.129C205.145 138.414 205.164 138.637 205.188 138.988C205.211 139.332 205.23 139.688 205.246 140.055C205.27 140.414 205.281 140.676 205.281 140.84H205.328C205.773 139.871 206.332 139.168 207.004 138.73C207.676 138.293 208.477 138.074 209.406 138.074C210.75 138.074 211.781 138.488 212.5 139.316C213.219 140.145 213.578 141.355 213.578 142.949V151H210.297V143.887C210.297 142.77 210.109 141.934 209.734 141.379C209.359 140.824 208.793 140.547 208.035 140.547C207.238 140.547 206.594 140.891 206.102 141.578C205.617 142.258 205.375 143.133 205.375 144.203ZM219.473 145.293C219.473 146.527 219.699 147.461 220.152 148.094C220.613 148.719 221.266 149.031 222.109 149.031C222.688 149.031 223.16 148.906 223.527 148.656C223.902 148.398 224.164 148.02 224.312 147.52L227.418 147.789C226.52 150.086 224.695 151.234 221.945 151.234C220.039 151.234 218.574 150.672 217.551 149.547C216.527 148.414 216.016 146.766 216.016 144.602C216.016 142.508 216.535 140.898 217.574 139.773C218.613 138.648 220.086 138.086 221.992 138.086C223.812 138.086 225.203 138.691 226.164 139.902C227.125 141.105 227.605 142.871 227.605 145.199V145.293H219.473ZM224.418 143.23C224.355 142.207 224.109 141.441 223.68 140.934C223.25 140.418 222.672 140.16 221.945 140.16C221.172 140.16 220.574 140.43 220.152 140.969C219.738 141.508 219.52 142.262 219.496 143.23H224.418Z" fill="white"/>
<path d="M113.363 272.297C113.363 273.523 112.859 274.488 111.852 275.191C110.852 275.887 109.465 276.234 107.691 276.234C105.949 276.234 104.613 275.961 103.684 275.414C102.762 274.859 102.148 274 101.844 272.836L104.738 272.402C104.902 273.004 105.184 273.43 105.582 273.68C105.988 273.93 106.691 274.055 107.691 274.055C108.613 274.055 109.285 273.938 109.707 273.703C110.129 273.469 110.34 273.102 110.34 272.602C110.34 272.195 110.168 271.875 109.824 271.641C109.488 271.398 108.914 271.195 108.102 271.031C107.484 270.906 106.93 270.785 106.438 270.668C105.953 270.551 105.535 270.438 105.184 270.328C104.84 270.211 104.559 270.102 104.34 270C103.691 269.68 103.195 269.27 102.852 268.77C102.516 268.27 102.348 267.652 102.348 266.918C102.348 265.707 102.812 264.766 103.742 264.094C104.68 263.414 106.004 263.074 107.715 263.074C109.223 263.074 110.434 263.367 111.348 263.953C112.27 264.539 112.844 265.387 113.07 266.496L110.152 266.801C110.059 266.285 109.828 265.902 109.461 265.652C109.094 265.395 108.512 265.266 107.715 265.266C106.934 265.266 106.348 265.367 105.957 265.57C105.566 265.766 105.371 266.098 105.371 266.566C105.371 266.934 105.52 267.227 105.816 267.445C106.121 267.656 106.629 267.832 107.34 267.973C108.332 268.176 109.211 268.387 109.977 268.605C110.75 268.816 111.371 269.07 111.84 269.367C112.301 269.664 112.668 270.047 112.941 270.516C113.223 270.977 113.363 271.57 113.363 272.297ZM118.754 270.293C118.754 271.527 118.98 272.461 119.434 273.094C119.895 273.719 120.547 274.031 121.391 274.031C121.969 274.031 122.441 273.906 122.809 273.656C123.184 273.398 123.445 273.02 123.594 272.52L126.699 272.789C125.801 275.086 123.977 276.234 121.227 276.234C119.32 276.234 117.855 275.672 116.832 274.547C115.809 273.414 115.297 271.766 115.297 269.602C115.297 267.508 115.816 265.898 116.855 264.773C117.895 263.648 119.367 263.086 121.273 263.086C123.094 263.086 124.484 263.691 125.445 264.902C126.406 266.105 126.887 267.871 126.887 270.199V270.293H118.754ZM123.699 268.23C123.637 267.207 123.391 266.441 122.961 265.934C122.531 265.418 121.953 265.16 121.227 265.16C120.453 265.16 119.855 265.43 119.434 265.969C119.02 266.508 118.801 267.262 118.777 268.23H123.699ZM132.688 269.203V276H129.395V266.156C129.395 265.477 129.383 264.922 129.359 264.492C129.344 264.055 129.324 263.664 129.301 263.32H132.441C132.457 263.414 132.477 263.637 132.5 263.988C132.523 264.332 132.543 264.688 132.559 265.055C132.582 265.414 132.594 265.676 132.594 265.84H132.641C133.047 264.871 133.551 264.168 134.152 263.73C134.762 263.293 135.488 263.074 136.332 263.074C137.301 263.074 138.078 263.305 138.664 263.766C139.258 264.227 139.656 264.918 139.859 265.84H139.93C140.359 264.855 140.875 264.148 141.477 263.719C142.078 263.289 142.844 263.074 143.773 263.074C145.008 263.074 145.949 263.496 146.598 264.34C147.246 265.176 147.57 266.379 147.57 267.949V276H144.301V268.887C144.301 267.77 144.141 266.934 143.82 266.379C143.5 265.824 143.02 265.547 142.379 265.547C141.738 265.547 141.203 265.859 140.773 266.484C140.344 267.102 140.129 267.957 140.129 269.051V276H136.859V268.887C136.859 267.77 136.699 266.934 136.379 266.379C136.059 265.824 135.578 265.547 134.938 265.547C134.273 265.547 133.73 265.887 133.309 266.566C132.895 267.246 132.688 268.125 132.688 269.203ZM154.039 258.609V261.035H150.746V258.609H154.039ZM154.039 263.32V276H150.746V263.32H154.039ZM163.449 275.812C162.652 276.078 161.727 276.211 160.672 276.211C159.703 276.211 158.957 275.949 158.434 275.426C157.91 274.895 157.648 274.094 157.648 273.023V265.547H156.043V263.32H157.812L158.844 260.344H160.906V263.32H163.309V265.547H160.906V272.133C160.906 272.75 161.023 273.207 161.258 273.504C161.492 273.793 161.855 273.938 162.348 273.938C162.582 273.938 162.949 273.883 163.449 273.773V275.812ZM177.465 269.648C177.465 271.703 176.895 273.316 175.754 274.488C174.613 275.652 173.035 276.234 171.02 276.234C169.043 276.234 167.492 275.648 166.367 274.477C165.242 273.305 164.68 271.695 164.68 269.648C164.68 267.609 165.242 266.008 166.367 264.844C167.492 263.672 169.066 263.086 171.09 263.086C173.16 263.086 174.738 263.652 175.824 264.785C176.918 265.91 177.465 267.531 177.465 269.648ZM174.02 269.648C174.02 268.141 173.773 267.047 173.281 266.367C172.789 265.688 172.074 265.348 171.137 265.348C170.137 265.348 169.387 265.707 168.887 266.426C168.387 267.137 168.137 268.211 168.137 269.648C168.137 271.062 168.379 272.141 168.863 272.883C169.355 273.617 170.062 273.984 170.984 273.984C172 273.984 172.758 273.625 173.258 272.906C173.766 272.18 174.02 271.094 174.02 269.648ZM183.383 269.203V276H180.09V266.156C180.09 265.477 180.078 264.922 180.055 264.492C180.039 264.055 180.02 263.664 179.996 263.32H183.137C183.152 263.414 183.172 263.637 183.195 263.988C183.219 264.332 183.238 264.688 183.254 265.055C183.277 265.414 183.289 265.676 183.289 265.84H183.336C183.781 264.871 184.34 264.168 185.012 263.73C185.684 263.293 186.484 263.074 187.414 263.074C188.758 263.074 189.789 263.488 190.508 264.316C191.227 265.145 191.586 266.355 191.586 267.949V276H188.305V268.887C188.305 267.77 188.117 266.934 187.742 266.379C187.367 265.824 186.801 265.547 186.043 265.547C185.246 265.547 184.602 265.891 184.109 266.578C183.625 267.258 183.383 268.133 183.383 269.203ZM197.48 270.293C197.48 271.527 197.707 272.461 198.16 273.094C198.621 273.719 199.273 274.031 200.117 274.031C200.695 274.031 201.168 273.906 201.535 273.656C201.91 273.398 202.172 273.02 202.32 272.52L205.426 272.789C204.527 275.086 202.703 276.234 199.953 276.234C198.047 276.234 196.582 275.672 195.559 274.547C194.535 273.414 194.023 271.766 194.023 269.602C194.023 267.508 194.543 265.898 195.582 264.773C196.621 263.648 198.094 263.086 200 263.086C201.82 263.086 203.211 263.691 204.172 264.902C205.133 266.105 205.613 267.871 205.613 270.199V270.293H197.48ZM202.426 268.23C202.363 267.207 202.117 266.441 201.688 265.934C201.258 265.418 200.68 265.16 199.953 265.16C199.18 265.16 198.582 265.43 198.16 265.969C197.746 266.508 197.527 267.262 197.504 268.23H202.426Z" fill="white"/>
<rect x="326" y="113" width="84" height="84" rx="10" fill="#454443" stroke="#8B8685" stroke-width="4"/>
<path d="M356 152.992V163H352.93V146.488H357.559L360.512 155.723C360.645 156.238 360.781 156.758 360.922 157.281C361.062 157.797 361.199 158.312 361.332 158.828C361.418 158.531 361.5 158.238 361.578 157.949C361.656 157.652 361.734 157.355 361.812 157.059C361.898 156.762 361.984 156.469 362.07 156.18L365.105 146.488H369.711V163H366.641V152.992C366.641 152.766 366.648 152.312 366.664 151.633C366.688 150.945 366.719 150.199 366.758 149.395C366.484 150.441 366.242 151.332 366.031 152.066C365.828 152.801 365.66 153.375 365.527 153.789L362.551 163H360.09L357.113 153.789L355.859 149.395C355.906 150.301 355.941 151.055 355.965 151.656C355.988 152.25 356 152.695 356 152.992ZM383.703 160.293V163H372.148V160.715C372.438 160.082 372.805 159.465 373.25 158.863C373.695 158.254 374.227 157.645 374.844 157.035C375.469 156.418 376.18 155.785 376.977 155.137C377.555 154.668 378.047 154.242 378.453 153.859C378.859 153.469 379.176 153.121 379.402 152.816C379.637 152.512 379.812 152.211 379.93 151.914C380.047 151.609 380.105 151.312 380.105 151.023C380.105 150.305 379.922 149.766 379.555 149.406C379.195 149.047 378.656 148.867 377.938 148.867C377.234 148.867 376.695 149.059 376.32 149.441C375.953 149.816 375.715 150.383 375.605 151.141L372.289 150.953C372.477 149.422 373.047 148.254 374 147.449C374.961 146.645 376.266 146.242 377.914 146.242C379.695 146.242 381.062 146.648 382.016 147.461C382.969 148.273 383.445 149.414 383.445 150.883C383.445 151.711 383.273 152.453 382.93 153.109C382.586 153.766 382.148 154.371 381.617 154.926C381.18 155.402 380.684 155.855 380.129 156.285C379.582 156.715 379.051 157.133 378.535 157.539C377.988 157.977 377.488 158.418 377.035 158.863C376.59 159.309 376.258 159.785 376.039 160.293H383.703Z" fill="white"/>
<rect x="422" y="113" width="84" height="84" rx="10" fill="#454443" stroke="#8B8685" stroke-width="4"/>
<path d="M464.504 151.715C464.504 152.785 464.258 153.734 463.766 154.562C463.281 155.383 462.59 156.027 461.691 156.496C460.793 156.957 459.723 157.188 458.48 157.188H454.379V163H450.922V146.488H458.34C460.316 146.488 461.836 146.945 462.898 147.859C463.969 148.766 464.504 150.051 464.504 151.715ZM461.023 151.773C461.023 150.039 460 149.172 457.953 149.172H454.379V154.527H458.047C459 154.527 459.734 154.293 460.25 153.824C460.766 153.348 461.023 152.664 461.023 151.773ZM476.34 159.637V163H473.199V159.637H465.688V157.164L472.66 146.488H476.34V157.188H478.543V159.637H476.34ZM468.371 157.188H473.199V151.785C473.199 151.363 473.211 150.906 473.234 150.414C473.266 149.922 473.289 149.605 473.305 149.465C473.203 149.684 473.059 149.953 472.871 150.273C472.691 150.586 472.469 150.949 472.203 151.363L468.371 157.188Z" fill="white"/>
<rect x="518" y="113" width="84" height="84" rx="10" fill="#252423" stroke="#8B8685" stroke-width="4"/>
<path d="M548.113 156.203V163H544.82V153.156C544.82 152.477 544.809 151.922 544.785 151.492C544.77 151.055 544.75 150.664 544.727 150.32H547.867C547.883 150.414 547.902 150.637 547.926 150.988C547.949 151.332 547.969 151.688 547.984 152.055C548.008 152.414 548.02 152.676 548.02 152.84H548.066C548.473 151.871 548.977 151.168 549.578 150.73C550.188 150.293 550.914 150.074 551.758 150.074C552.727 150.074 553.504 150.305 554.09 150.766C554.684 151.227 555.082 151.918 555.285 152.84H555.355C555.785 151.855 556.301 151.148 556.902 150.719C557.504 150.289 558.27 150.074 559.199 150.074C560.434 150.074 561.375 150.496 562.023 151.34C562.672 152.176 562.996 153.379 562.996 154.949V163H559.727V155.887C559.727 154.77 559.566 153.934 559.246 153.379C558.926 152.824 558.445 152.547 557.805 152.547C557.164 152.547 556.629 152.859 556.199 153.484C555.77 154.102 555.555 154.957 555.555 156.051V163H552.285V155.887C552.285 154.77 552.125 153.934 551.805 153.379C551.484 152.824 551.004 152.547 550.363 152.547C549.699 152.547 549.156 152.887 548.734 153.566C548.32 154.246 548.113 155.125 548.113 156.203ZM576.977 157.598C576.977 159.355 576.484 160.734 575.5 161.734C574.516 162.734 573.156 163.234 571.422 163.234C569.477 163.234 567.98 162.555 566.934 161.195C565.895 159.828 565.375 157.805 565.375 155.125C565.375 152.18 565.902 149.965 566.957 148.48C568.02 146.988 569.535 146.242 571.504 146.242C572.902 146.242 574.004 146.551 574.809 147.168C575.621 147.785 576.195 148.742 576.531 150.039L573.426 150.473C573.137 149.387 572.473 148.844 571.434 148.844C570.551 148.844 569.855 149.285 569.348 150.168C568.848 151.051 568.598 152.391 568.598 154.188C568.949 153.602 569.438 153.152 570.062 152.84C570.688 152.527 571.395 152.371 572.184 152.371C573.66 152.371 574.828 152.84 575.688 153.777C576.547 154.715 576.977 155.988 576.977 157.598ZM573.672 157.691C573.672 156.754 573.453 156.039 573.016 155.547C572.586 155.047 571.992 154.797 571.234 154.797C570.508 154.797 569.926 155.031 569.488 155.5C569.051 155.961 568.832 156.574 568.832 157.34C568.832 157.98 568.934 158.551 569.137 159.051C569.348 159.551 569.641 159.945 570.016 160.234C570.391 160.523 570.824 160.668 571.316 160.668C572.059 160.668 572.637 160.406 573.051 159.883C573.465 159.352 573.672 158.621 573.672 157.691Z" fill="white"/>
<rect x="614" y="113" width="84" height="84" rx="10" fill="#454443" stroke="#8B8685" stroke-width="4"/>
<path d="M644 152.992V163H640.93V146.488H645.559L648.512 155.723C648.645 156.238 648.781 156.758 648.922 157.281C649.062 157.797 649.199 158.312 649.332 158.828C649.418 158.531 649.5 158.238 649.578 157.949C649.656 157.652 649.734 157.355 649.812 157.059C649.898 156.762 649.984 156.469 650.07 156.18L653.105 146.488H657.711V163H654.641V152.992C654.641 152.766 654.648 152.312 654.664 151.633C654.688 150.945 654.719 150.199 654.758 149.395C654.484 150.441 654.242 151.332 654.031 152.066C653.828 152.801 653.66 153.375 653.527 153.789L650.551 163H648.09L645.113 153.789L643.859 149.395C643.906 150.301 643.941 151.055 643.965 151.656C643.988 152.25 644 152.695 644 152.992ZM671.609 149.102C670.867 150.273 670.164 151.41 669.5 152.512C668.844 153.605 668.27 154.711 667.777 155.828C667.285 156.938 666.895 158.082 666.605 159.262C666.324 160.441 666.184 161.688 666.184 163H662.75C662.75 161.742 662.887 160.551 663.16 159.426C663.434 158.293 663.867 157.102 664.461 155.852C664.852 155.039 665.367 154.109 666.008 153.062C666.648 152.016 667.496 150.727 668.551 149.195H660.348V146.488H671.609V149.102Z" fill="white"/>
<rect x="294" y="305" width="84" height="84" rx="10" fill="#252423" stroke="#8B8685" stroke-width="4"/>
<path d="M324.113 348.203V355H320.82V345.156C320.82 344.477 320.809 343.922 320.785 343.492C320.77 343.055 320.75 342.664 320.727 342.32H323.867C323.883 342.414 323.902 342.637 323.926 342.988C323.949 343.332 323.969 343.688 323.984 344.055C324.008 344.414 324.02 344.676 324.02 344.84H324.066C324.473 343.871 324.977 343.168 325.578 342.73C326.188 342.293 326.914 342.074 327.758 342.074C328.727 342.074 329.504 342.305 330.09 342.766C330.684 343.227 331.082 343.918 331.285 344.84H331.355C331.785 343.855 332.301 343.148 332.902 342.719C333.504 342.289 334.27 342.074 335.199 342.074C336.434 342.074 337.375 342.496 338.023 343.34C338.672 344.176 338.996 345.379 338.996 346.949V355H335.727V347.887C335.727 346.77 335.566 345.934 335.246 345.379C334.926 344.824 334.445 344.547 333.805 344.547C333.164 344.547 332.629 344.859 332.199 345.484C331.77 346.102 331.555 346.957 331.555 348.051V355H328.285V347.887C328.285 346.77 328.125 345.934 327.805 345.379C327.484 344.824 327.004 344.547 326.363 344.547C325.699 344.547 325.156 344.887 324.734 345.566C324.32 346.246 324.113 347.125 324.113 348.203ZM352.883 352.293V355H341.328V352.715C341.617 352.082 341.984 351.465 342.43 350.863C342.875 350.254 343.406 349.645 344.023 349.035C344.648 348.418 345.359 347.785 346.156 347.137C346.734 346.668 347.227 346.242 347.633 345.859C348.039 345.469 348.355 345.121 348.582 344.816C348.816 344.512 348.992 344.211 349.109 343.914C349.227 343.609 349.285 343.312 349.285 343.023C349.285 342.305 349.102 341.766 348.734 341.406C348.375 341.047 347.836 340.867 347.117 340.867C346.414 340.867 345.875 341.059 345.5 341.441C345.133 341.816 344.895 342.383 344.785 343.141L341.469 342.953C341.656 341.422 342.227 340.254 343.18 339.449C344.141 338.645 345.445 338.242 347.094 338.242C348.875 338.242 350.242 338.648 351.195 339.461C352.148 340.273 352.625 341.414 352.625 342.883C352.625 343.711 352.453 344.453 352.109 345.109C351.766 345.766 351.328 346.371 350.797 346.926C350.359 347.402 349.863 347.855 349.309 348.285C348.762 348.715 348.23 349.133 347.715 349.539C347.168 349.977 346.668 350.418 346.215 350.863C345.77 351.309 345.438 351.785 345.219 352.293H352.883Z" fill="white"/>
<rect x="294" y="17" width="84" height="84" rx="10" fill="#252423" stroke="#8B8685" stroke-width="4"/>
<path d="M324.113 60.2031V67H320.82V57.1562C320.82 56.4766 320.809 55.9219 320.785 55.4922C320.77 55.0547 320.75 54.6641 320.727 54.3203H323.867C323.883 54.4141 323.902 54.6367 323.926 54.9883C323.949 55.332 323.969 55.6875 323.984 56.0547C324.008 56.4141 324.02 56.6758 324.02 56.8398H324.066C324.473 55.8711 324.977 55.168 325.578 54.7305C326.188 54.293 326.914 54.0742 327.758 54.0742C328.727 54.0742 329.504 54.3047 330.09 54.7656C330.684 55.2266 331.082 55.918 331.285 56.8398H331.355C331.785 55.8555 332.301 55.1484 332.902 54.7188C333.504 54.2891 334.27 54.0742 335.199 54.0742C336.434 54.0742 337.375 54.4961 338.023 55.3398C338.672 56.1758 338.996 57.3789 338.996 58.9492V67H335.727V59.8867C335.727 58.7695 335.566 57.9336 335.246 57.3789C334.926 56.8242 334.445 56.5469 333.805 56.5469C333.164 56.5469 332.629 56.8594 332.199 57.4844C331.77 58.1016 331.555 58.957 331.555 60.0508V67H328.285V59.8867C328.285 58.7695 328.125 57.9336 327.805 57.3789C327.484 56.8242 327.004 56.5469 326.363 56.5469C325.699 56.5469 325.156 56.8867 324.734 57.5664C324.32 58.2461 324.113 59.125 324.113 60.2031ZM352.883 64.293V67H341.328V64.7148C341.617 64.082 341.984 63.4648 342.43 62.8633C342.875 62.2539 343.406 61.6445 344.023 61.0352C344.648 60.418 345.359 59.7852 346.156 59.1367C346.734 58.668 347.227 58.2422 347.633 57.8594C348.039 57.4688 348.355 57.1211 348.582 56.8164C348.816 56.5117 348.992 56.2109 349.109 55.9141C349.227 55.6094 349.285 55.3125 349.285 55.0234C349.285 54.3047 349.102 53.7656 348.734 53.4062C348.375 53.0469 347.836 52.8672 347.117 52.8672C346.414 52.8672 345.875 53.0586 345.5 53.4414C345.133 53.8164 344.895 54.3828 344.785 55.1406L341.469 54.9531C341.656 53.4219 342.227 52.2539 343.18 51.4492C344.141 50.6445 345.445 50.2422 347.094 50.2422C348.875 50.2422 350.242 50.6484 351.195 51.4609C352.148 52.2734 352.625 53.4141 352.625 54.8828C352.625 55.7109 352.453 56.4531 352.109 57.1094C351.766 57.7656 351.328 58.3711 350.797 58.9258C350.359 59.4023 349.863 59.8555 349.309 60.2852C348.762 60.7148 348.23 61.1328 347.715 61.5391C347.168 61.9766 346.668 62.418 346.215 62.8633C345.77 63.3086 345.438 63.7852 345.219 64.293H352.883Z" fill="white"/>
<rect x="390" y="305" width="84" height="84" rx="10" fill="#454443" stroke="#8B8685" stroke-width="4"/>
<path d="M420 344.992V355H416.93V338.488H421.559L424.512 347.723C424.645 348.238 424.781 348.758 424.922 349.281C425.062 349.797 425.199 350.312 425.332 350.828C425.418 350.531 425.5 350.238 425.578 349.949C425.656 349.652 425.734 349.355 425.812 349.059C425.898 348.762 425.984 348.469 426.07 348.18L429.105 338.488H433.711V355H430.641V344.992C430.641 344.766 430.648 344.312 430.664 343.633C430.688 342.945 430.719 342.199 430.758 341.395C430.484 342.441 430.242 343.332 430.031 344.066C429.828 344.801 429.66 345.375 429.527 345.789L426.551 355H424.09L421.113 345.789L419.859 341.395C419.906 342.301 419.941 343.055 419.965 343.656C419.988 344.25 420 344.695 420 344.992ZM447.797 350.418C447.797 351.965 447.289 353.16 446.273 354.004C445.258 354.848 443.812 355.27 441.938 355.27C440.164 355.27 438.754 354.863 437.707 354.051C436.66 353.23 436.047 352.051 435.867 350.512L439.219 350.219C439.43 351.805 440.332 352.598 441.926 352.598C442.715 352.598 443.328 352.402 443.766 352.012C444.203 351.621 444.422 351.023 444.422 350.219C444.422 349.484 444.156 348.922 443.625 348.531C443.094 348.141 442.305 347.945 441.258 347.945H440.109V345.285H441.188C442.133 345.285 442.844 345.094 443.32 344.711C443.797 344.32 444.035 343.766 444.035 343.047C444.035 342.367 443.844 341.836 443.461 341.453C443.086 341.062 442.535 340.867 441.809 340.867C441.129 340.867 440.578 341.055 440.156 341.43C439.742 341.805 439.504 342.336 439.441 343.023L436.148 342.789C436.32 341.367 436.91 340.254 437.918 339.449C438.926 338.645 440.242 338.242 441.867 338.242C443.594 338.242 444.941 338.633 445.91 339.414C446.887 340.188 447.375 341.262 447.375 342.637C447.375 343.668 447.07 344.516 446.461 345.18C445.859 345.844 444.988 346.285 443.848 346.504V346.551C445.113 346.699 446.086 347.117 446.766 347.805C447.453 348.484 447.797 349.355 447.797 350.418Z" fill="white"/>
<rect x="390" y="17" width="84" height="84" rx="10" fill="#454443" stroke="#8B8685" stroke-width="4"/>
<path d="M420 56.9922V67H416.93V50.4883H421.559L424.512 59.7227C424.645 60.2383 424.781 60.7578 424.922 61.2812C425.062 61.7969 425.199 62.3125 425.332 62.8281C425.418 62.5312 425.5 62.2383 425.578 61.9492C425.656 61.6523 425.734 61.3555 425.812 61.0586C425.898 60.7617 425.984 60.4688 426.07 60.1797L429.105 50.4883H433.711V67H430.641V56.9922C430.641 56.7656 430.648 56.3125 430.664 55.6328C430.688 54.9453 430.719 54.1992 430.758 53.3945C430.484 54.4414 430.242 55.332 430.031 56.0664C429.828 56.8008 429.66 57.375 429.527 57.7891L426.551 67H424.09L421.113 57.7891L419.859 53.3945C419.906 54.3008 419.941 55.0547 419.965 55.6562C419.988 56.25 420 56.6953 420 56.9922ZM447.797 62.418C447.797 63.9648 447.289 65.1602 446.273 66.0039C445.258 66.8477 443.812 67.2695 441.938 67.2695C440.164 67.2695 438.754 66.8633 437.707 66.0508C436.66 65.2305 436.047 64.0508 435.867 62.5117L439.219 62.2188C439.43 63.8047 440.332 64.5977 441.926 64.5977C442.715 64.5977 443.328 64.4023 443.766 64.0117C444.203 63.6211 444.422 63.0234 444.422 62.2188C444.422 61.4844 444.156 60.9219 443.625 60.5312C443.094 60.1406 442.305 59.9453 441.258 59.9453H440.109V57.2852H441.188C442.133 57.2852 442.844 57.0938 443.32 56.7109C443.797 56.3203 444.035 55.7656 444.035 55.0469C444.035 54.3672 443.844 53.8359 443.461 53.4531C443.086 53.0625 442.535 52.8672 441.809 52.8672C441.129 52.8672 440.578 53.0547 440.156 53.4297C439.742 53.8047 439.504 54.3359 439.441 55.0234L436.148 54.7891C436.32 53.3672 436.91 52.2539 437.918 51.4492C438.926 50.6445 440.242 50.2422 441.867 50.2422C443.594 50.2422 444.941 50.6328 445.91 51.4141C446.887 52.1875 447.375 53.2617 447.375 54.6367C447.375 55.668 447.07 56.5156 446.461 57.1797C445.859 57.8438 444.988 58.2852 443.848 58.5039V58.5508C445.113 58.6992 446.086 59.1172 446.766 59.8047C447.453 60.4844 447.797 61.3555 447.797 62.418Z" fill="white"/>
<rect x="486" y="305" width="84" height="84" rx="10" fill="#454443" stroke="#8B8685" stroke-width="4"/>
<path d="M528.504 343.715C528.504 344.785 528.258 345.734 527.766 346.562C527.281 347.383 526.59 348.027 525.691 348.496C524.793 348.957 523.723 349.188 522.48 349.188H518.379V355H514.922V338.488H522.34C524.316 338.488 525.836 338.945 526.898 339.859C527.969 340.766 528.504 342.051 528.504 343.715ZM525.023 343.773C525.023 342.039 524 341.172 521.953 341.172H518.379V346.527H522.047C523 346.527 523.734 346.293 524.25 345.824C524.766 345.348 525.023 344.664 525.023 343.773ZM542.004 349.504C542.004 351.254 541.457 352.648 540.363 353.688C539.277 354.719 537.785 355.234 535.887 355.234C534.23 355.234 532.902 354.863 531.902 354.121C530.91 353.371 530.297 352.289 530.062 350.875L533.355 350.605C533.527 351.309 533.832 351.82 534.27 352.141C534.707 352.461 535.258 352.621 535.922 352.621C536.742 352.621 537.395 352.359 537.879 351.836C538.371 351.312 538.617 350.559 538.617 349.574C538.617 348.707 538.387 348.016 537.926 347.5C537.465 346.977 536.82 346.715 535.992 346.715C535.539 346.715 535.125 346.805 534.75 346.984C534.375 347.156 534.043 347.422 533.754 347.781H530.543L531.117 338.488H541.043V340.938H534.105L533.836 345.109C534.633 344.406 535.629 344.055 536.824 344.055C537.871 344.055 538.781 344.277 539.555 344.723C540.336 345.16 540.938 345.785 541.359 346.598C541.789 347.41 542.004 348.379 542.004 349.504Z" fill="white"/>
<rect x="486" y="17" width="84" height="84" rx="10" fill="#454443" stroke="#8B8685" stroke-width="4"/>
<path d="M528.504 55.7148C528.504 56.7852 528.258 57.7344 527.766 58.5625C527.281 59.3828 526.59 60.0273 525.691 60.4961C524.793 60.957 523.723 61.1875 522.48 61.1875H518.379V67H514.922V50.4883H522.34C524.316 50.4883 525.836 50.9453 526.898 51.8594C527.969 52.7656 528.504 54.0508 528.504 55.7148ZM525.023 55.7734C525.023 54.0391 524 53.1719 521.953 53.1719H518.379V58.5273H522.047C523 58.5273 523.734 58.293 524.25 57.8242C524.766 57.3477 525.023 56.6641 525.023 55.7734ZM542.004 61.5039C542.004 63.2539 541.457 64.6484 540.363 65.6875C539.277 66.7188 537.785 67.2344 535.887 67.2344C534.23 67.2344 532.902 66.8633 531.902 66.1211C530.91 65.3711 530.297 64.2891 530.062 62.875L533.355 62.6055C533.527 63.3086 533.832 63.8203 534.27 64.1406C534.707 64.4609 535.258 64.6211 535.922 64.6211C536.742 64.6211 537.395 64.3594 537.879 63.8359C538.371 63.3125 538.617 62.5586 538.617 61.5742C538.617 60.707 538.387 60.0156 537.926 59.5C537.465 58.9766 536.82 58.7148 535.992 58.7148C535.539 58.7148 535.125 58.8047 534.75 58.9844C534.375 59.1562 534.043 59.4219 533.754 59.7812H530.543L531.117 50.4883H541.043V52.9375H534.105L533.836 57.1094C534.633 56.4062 535.629 56.0547 536.824 56.0547C537.871 56.0547 538.781 56.2773 539.555 56.7227C540.336 57.1602 540.938 57.7852 541.359 58.5977C541.789 59.4102 542.004 60.3789 542.004 61.5039Z" fill="white"/>
<rect x="582" y="305" width="84" height="84" rx="10" fill="#252423" stroke="#8B8685" stroke-width="4"/>
<path d="M612.113 348.203V355H608.82V345.156C608.82 344.477 608.809 343.922 608.785 343.492C608.77 343.055 608.75 342.664 608.727 342.32H611.867C611.883 342.414 611.902 342.637 611.926 342.988C611.949 343.332 611.969 343.688 611.984 344.055C612.008 344.414 612.02 344.676 612.02 344.84H612.066C612.473 343.871 612.977 343.168 613.578 342.73C614.188 342.293 614.914 342.074 615.758 342.074C616.727 342.074 617.504 342.305 618.09 342.766C618.684 343.227 619.082 343.918 619.285 344.84H619.355C619.785 343.855 620.301 343.148 620.902 342.719C621.504 342.289 622.27 342.074 623.199 342.074C624.434 342.074 625.375 342.496 626.023 343.34C626.672 344.176 626.996 345.379 626.996 346.949V355H623.727V347.887C623.727 346.77 623.566 345.934 623.246 345.379C622.926 344.824 622.445 344.547 621.805 344.547C621.164 344.547 620.629 344.859 620.199 345.484C619.77 346.102 619.555 346.957 619.555 348.051V355H616.285V347.887C616.285 346.77 616.125 345.934 615.805 345.379C615.484 344.824 615.004 344.547 614.363 344.547C613.699 344.547 613.156 344.887 612.734 345.566C612.32 346.246 612.113 347.125 612.113 348.203ZM640.789 341.102C640.047 342.273 639.344 343.41 638.68 344.512C638.023 345.605 637.449 346.711 636.957 347.828C636.465 348.938 636.074 350.082 635.785 351.262C635.504 352.441 635.363 353.688 635.363 355H631.93C631.93 353.742 632.066 352.551 632.34 351.426C632.613 350.293 633.047 349.102 633.641 347.852C634.031 347.039 634.547 346.109 635.188 345.062C635.828 344.016 636.676 342.727 637.73 341.195H629.527V338.488H640.789V341.102Z" fill="white"/>
<rect x="582" y="17" width="84" height="84" rx="10" fill="#252423" stroke="#8B8685" stroke-width="4"/>
<path d="M612.113 60.2031V67H608.82V57.1562C608.82 56.4766 608.809 55.9219 608.785 55.4922C608.77 55.0547 608.75 54.6641 608.727 54.3203H611.867C611.883 54.4141 611.902 54.6367 611.926 54.9883C611.949 55.332 611.969 55.6875 611.984 56.0547C612.008 56.4141 612.02 56.6758 612.02 56.8398H612.066C612.473 55.8711 612.977 55.168 613.578 54.7305C614.188 54.293 614.914 54.0742 615.758 54.0742C616.727 54.0742 617.504 54.3047 618.09 54.7656C618.684 55.2266 619.082 55.918 619.285 56.8398H619.355C619.785 55.8555 620.301 55.1484 620.902 54.7188C621.504 54.2891 622.27 54.0742 623.199 54.0742C624.434 54.0742 625.375 54.4961 626.023 55.3398C626.672 56.1758 626.996 57.3789 626.996 58.9492V67H623.727V59.8867C623.727 58.7695 623.566 57.9336 623.246 57.3789C622.926 56.8242 622.445 56.5469 621.805 56.5469C621.164 56.5469 620.629 56.8594 620.199 57.4844C619.77 58.1016 619.555 58.957 619.555 60.0508V67H616.285V59.8867C616.285 58.7695 616.125 57.9336 615.805 57.3789C615.484 56.8242 615.004 56.5469 614.363 56.5469C613.699 56.5469 613.156 56.8867 612.734 57.5664C612.32 58.2461 612.113 59.125 612.113 60.2031ZM640.789 53.1016C640.047 54.2734 639.344 55.4102 638.68 56.5117C638.023 57.6055 637.449 58.7109 636.957 59.8281C636.465 60.9375 636.074 62.082 635.785 63.2617C635.504 64.4414 635.363 65.6875 635.363 67H631.93C631.93 65.7422 632.066 64.5508 632.34 63.4258C632.613 62.293 633.047 61.1016 633.641 59.8516C634.031 59.0391 634.547 58.1094 635.188 57.0625C635.828 56.0156 636.676 54.7266 637.73 53.1953H629.527V50.4883H640.789V53.1016Z" fill="white"/>
<rect x="262" y="209" width="84" height="84" rx="10" fill="#454443" stroke="#8B8685" stroke-width="4"/>
<path d="M304.504 247.715C304.504 248.785 304.258 249.734 303.766 250.562C303.281 251.383 302.59 252.027 301.691 252.496C300.793 252.957 299.723 253.188 298.48 253.188H294.379V259H290.922V242.488H298.34C300.316 242.488 301.836 242.945 302.898 243.859C303.969 244.766 304.504 246.051 304.504 247.715ZM301.023 247.773C301.023 246.039 300 245.172 297.953 245.172H294.379V250.527H298.047C299 250.527 299.734 250.293 300.25 249.824C300.766 249.348 301.023 248.664 301.023 247.773ZM318.004 256.551V259H306.836V256.551H310.926V245.289L306.965 247.762V245.172L311.102 242.488H314.219V256.551H318.004Z" fill="white"/>
<rect x="358" y="209" width="84" height="84" rx="10" fill="#252423" stroke="#8B8685" stroke-width="4"/>
<path d="M388.113 252.203V259H384.82V249.156C384.82 248.477 384.809 247.922 384.785 247.492C384.77 247.055 384.75 246.664 384.727 246.32H387.867C387.883 246.414 387.902 246.637 387.926 246.988C387.949 247.332 387.969 247.688 387.984 248.055C388.008 248.414 388.02 248.676 388.02 248.84H388.066C388.473 247.871 388.977 247.168 389.578 246.73C390.188 246.293 390.914 246.074 391.758 246.074C392.727 246.074 393.504 246.305 394.09 246.766C394.684 247.227 395.082 247.918 395.285 248.84H395.355C395.785 247.855 396.301 247.148 396.902 246.719C397.504 246.289 398.27 246.074 399.199 246.074C400.434 246.074 401.375 246.496 402.023 247.34C402.672 248.176 402.996 249.379 402.996 250.949V259H399.727V251.887C399.727 250.77 399.566 249.934 399.246 249.379C398.926 248.824 398.445 248.547 397.805 248.547C397.164 248.547 396.629 248.859 396.199 249.484C395.77 250.102 395.555 250.957 395.555 252.051V259H392.285V251.887C392.285 250.77 392.125 249.934 391.805 249.379C391.484 248.824 391.004 248.547 390.363 248.547C389.699 248.547 389.156 248.887 388.734 249.566C388.32 250.246 388.113 251.125 388.113 252.203ZM416.977 254.418C416.977 255.965 416.469 257.16 415.453 258.004C414.438 258.848 412.992 259.27 411.117 259.27C409.344 259.27 407.934 258.863 406.887 258.051C405.84 257.23 405.227 256.051 405.047 254.512L408.398 254.219C408.609 255.805 409.512 256.598 411.105 256.598C411.895 256.598 412.508 256.402 412.945 256.012C413.383 255.621 413.602 255.023 413.602 254.219C413.602 253.484 413.336 252.922 412.805 252.531C412.273 252.141 411.484 251.945 410.438 251.945H409.289V249.285H410.367C411.312 249.285 412.023 249.094 412.5 248.711C412.977 248.32 413.215 247.766 413.215 247.047C413.215 246.367 413.023 245.836 412.641 245.453C412.266 245.062 411.715 244.867 410.988 244.867C410.309 244.867 409.758 245.055 409.336 245.43C408.922 245.805 408.684 246.336 408.621 247.023L405.328 246.789C405.5 245.367 406.09 244.254 407.098 243.449C408.105 242.645 409.422 242.242 411.047 242.242C412.773 242.242 414.121 242.633 415.09 243.414C416.066 244.188 416.555 245.262 416.555 246.637C416.555 247.668 416.25 248.516 415.641 249.18C415.039 249.844 414.168 250.285 413.027 250.504V250.551C414.293 250.699 415.266 251.117 415.945 251.805C416.633 252.484 416.977 253.355 416.977 254.418Z" fill="white"/>
<rect x="454" y="209" width="84" height="84" rx="10" fill="#252423" stroke="#8B8685" stroke-width="4"/>
<path d="M495.707 258.812C494.91 259.078 493.984 259.211 492.93 259.211C491.961 259.211 491.215 258.949 490.691 258.426C490.168 257.895 489.906 257.094 489.906 256.023V248.547H488.301V246.32H490.07L491.102 243.344H493.164V246.32H495.566V248.547H493.164V255.133C493.164 255.75 493.281 256.207 493.516 256.504C493.75 256.793 494.113 256.938 494.605 256.938C494.84 256.938 495.207 256.883 495.707 256.773V258.812ZM503.699 258.812C502.902 259.078 501.977 259.211 500.922 259.211C499.953 259.211 499.207 258.949 498.684 258.426C498.16 257.895 497.898 257.094 497.898 256.023V248.547H496.293V246.32H498.062L499.094 243.344H501.156V246.32H503.559V248.547H501.156V255.133C501.156 255.75 501.273 256.207 501.508 256.504C501.742 256.793 502.105 256.938 502.598 256.938C502.832 256.938 503.199 256.883 503.699 256.773V258.812Z" fill="white"/>
<rect x="550" y="209" width="84" height="84" rx="10" fill="#454443" stroke="#8B8685" stroke-width="4"/>
<path d="M580 248.992V259H576.93V242.488H581.559L584.512 251.723C584.645 252.238 584.781 252.758 584.922 253.281C585.062 253.797 585.199 254.312 585.332 254.828C585.418 254.531 585.5 254.238 585.578 253.949C585.656 253.652 585.734 253.355 585.812 253.059C585.898 252.762 585.984 252.469 586.07 252.18L589.105 242.488H593.711V259H590.641V248.992C590.641 248.766 590.648 248.312 590.664 247.633C590.688 246.945 590.719 246.199 590.758 245.395C590.484 246.441 590.242 247.332 590.031 248.066C589.828 248.801 589.66 249.375 589.527 249.789L586.551 259H584.09L581.113 249.789L579.859 245.395C579.906 246.301 579.941 247.055 579.965 247.656C579.988 248.25 580 248.695 580 248.992ZM607.797 253.598C607.797 255.355 607.305 256.734 606.32 257.734C605.336 258.734 603.977 259.234 602.242 259.234C600.297 259.234 598.801 258.555 597.754 257.195C596.715 255.828 596.195 253.805 596.195 251.125C596.195 248.18 596.723 245.965 597.777 244.48C598.84 242.988 600.355 242.242 602.324 242.242C603.723 242.242 604.824 242.551 605.629 243.168C606.441 243.785 607.016 244.742 607.352 246.039L604.246 246.473C603.957 245.387 603.293 244.844 602.254 244.844C601.371 244.844 600.676 245.285 600.168 246.168C599.668 247.051 599.418 248.391 599.418 250.188C599.77 249.602 600.258 249.152 600.883 248.84C601.508 248.527 602.215 248.371 603.004 248.371C604.48 248.371 605.648 248.84 606.508 249.777C607.367 250.715 607.797 251.988 607.797 253.598ZM604.492 253.691C604.492 252.754 604.273 252.039 603.836 251.547C603.406 251.047 602.812 250.797 602.055 250.797C601.328 250.797 600.746 251.031 600.309 251.5C599.871 251.961 599.652 252.574 599.652 253.34C599.652 253.98 599.754 254.551 599.957 255.051C600.168 255.551 600.461 255.945 600.836 256.234C601.211 256.523 601.645 256.668 602.137 256.668C602.879 256.668 603.457 256.406 603.871 255.883C604.285 255.352 604.492 254.621 604.492 253.691Z" fill="white"/>
<rect x="646" y="209" width="84" height="84" rx="10" fill="#454443" stroke="#8B8685" stroke-width="4"/>
<path d="M688.504 247.715C688.504 248.785 688.258 249.734 687.766 250.562C687.281 251.383 686.59 252.027 685.691 252.496C684.793 252.957 683.723 253.188 682.48 253.188H678.379V259H674.922V242.488H682.34C684.316 242.488 685.836 242.945 686.898 243.859C687.969 244.766 688.504 246.051 688.504 247.715ZM685.023 247.773C685.023 246.039 684 245.172 681.953 245.172H678.379V250.527H682.047C683 250.527 683.734 250.293 684.25 249.824C684.766 249.348 685.023 248.664 685.023 247.773ZM701.934 254.348C701.934 255.895 701.422 257.098 700.398 257.957C699.375 258.809 697.914 259.234 696.016 259.234C694.133 259.234 692.672 258.809 691.633 257.957C690.602 257.105 690.086 255.91 690.086 254.371C690.086 253.316 690.391 252.43 691 251.711C691.609 250.984 692.426 250.535 693.449 250.363V250.316C692.559 250.121 691.84 249.68 691.293 248.992C690.746 248.305 690.473 247.512 690.473 246.613C690.473 245.262 690.949 244.195 691.902 243.414C692.863 242.633 694.219 242.242 695.969 242.242C697.758 242.242 699.129 242.625 700.082 243.391C701.043 244.148 701.523 245.23 701.523 246.637C701.523 247.535 701.25 248.324 700.703 249.004C700.164 249.684 699.438 250.113 698.523 250.293V250.34C699.586 250.512 700.418 250.949 701.02 251.652C701.629 252.348 701.934 253.246 701.934 254.348ZM698.137 246.812C698.137 245.305 697.414 244.551 695.969 244.551C694.547 244.551 693.836 245.305 693.836 246.812C693.836 247.602 694.016 248.195 694.375 248.594C694.734 248.984 695.273 249.18 695.992 249.18C696.711 249.18 697.246 248.996 697.598 248.629C697.957 248.262 698.137 247.656 698.137 246.812ZM698.523 254.078C698.523 253.219 698.309 252.574 697.879 252.145C697.449 251.707 696.805 251.488 695.945 251.488C695.148 251.488 694.535 251.715 694.105 252.168C693.684 252.621 693.473 253.273 693.473 254.125C693.473 255.094 693.684 255.801 694.105 256.246C694.527 256.691 695.172 256.914 696.039 256.914C696.891 256.914 697.516 256.691 697.914 256.246C698.32 255.801 698.523 255.078 698.523 254.078Z" fill="white"/>
</svg>
