<?xml version="1.0" encoding="UTF-8" standalone="no"?>
<!DOCTYPE svg PUBLIC "-//W3C//DTD SVG 1.1//EN" "http://www.w3.org/Graphics/SVG/1.1/DTD/svg11.dtd">
<svg width="1148" height="356" xmlns="http://www.w3.org/2000/svg">
  <rect fill="#090807" x="0" y="0" rx="16" width="1148" height="356"></rect>
  <rect x="24" y="24" rx="7" width="44" height="44" fill="#252423"></rect>
  <text x="46" y="52.16" text-anchor="middle" fill="#e9e8e7" font-family="Arimo, sans-serif"></text>
  <rect x="120" y="24" rx="7" width="44" height="44" fill="#356433"></rect>
  <text x="142" y="52.16" text-anchor="middle" fill="#e9e8e7" font-family="Arimo, sans-serif">G</text>
  <rect x="168" y="24" rx="7" width="44" height="44" fill="#356433"></rect>
  <text x="190" y="52.16" text-anchor="middle" fill="#e9e8e7" font-family="Arimo, sans-serif">Ab</text>
  <rect x="216" y="24" rx="7" width="44" height="44" fill="#356433"></rect>
  <text x="238" y="52.16" text-anchor="middle" fill="#e9e8e7" font-family="Arimo, sans-serif">A</text>
  <rect x="264" y="24" rx="7" width="44" height="44" fill="#356433"></rect>
  <text x="286" y="52.16" text-anchor="middle" fill="#e9e8e7" font-family="Arimo, sans-serif">Bb</text>
  <rect x="336" y="24" rx="7" width="44" height="44" fill="#356433"></rect>
  <text x="358" y="52.16" text-anchor="middle" fill="#e9e8e7" font-family="Arimo, sans-serif">B</text>
  <rect x="384" y="24" rx="7" width="44" height="44" fill="#356433"></rect>
  <text x="406" y="52.16" text-anchor="middle" fill="#e9e8e7" font-family="Arimo, sans-serif">C</text>
  <rect x="432" y="24" rx="7" width="44" height="44" fill="#356433"></rect>
  <text x="454" y="52.16" text-anchor="middle" fill="#e9e8e7" font-family="Arimo, sans-serif">Db</text>
  <rect x="480" y="24" rx="7" width="44" height="44" fill="#356433"></rect>
  <text x="502" y="52.16" text-anchor="middle" fill="#e9e8e7" font-family="Arimo, sans-serif">D</text>
  <rect x="552" y="24" rx="7" width="44" height="44" fill="#356433"></rect>
  <text x="574" y="52.16" text-anchor="middle" fill="#e9e8e7" font-family="Arimo, sans-serif">Eb</text>
  <rect x="600" y="24" rx="7" width="44" height="44" fill="#356433"></rect>
  <text x="622" y="52.16" text-anchor="middle" fill="#e9e8e7" font-family="Arimo, sans-serif">E</text>
  <rect x="648" y="24" rx="7" width="44" height="44" fill="#356433"></rect>
  <text x="670" y="52.16" text-anchor="middle" fill="#e9e8e7" font-family="Arimo, sans-serif">F</text>
  <rect x="696" y="24" rx="7" width="44" height="44" fill="#356433"></rect>
  <text x="718" y="52.16" text-anchor="middle" fill="#e9e8e7" font-family="Arimo, sans-serif">Gb</text>
  <rect x="768" y="24" rx="7" width="44" height="44" fill="#252423"></rect>
  <text x="790" y="52.16" text-anchor="middle" fill="#e9e8e7" font-family="Arimo, sans-serif"></text>
  <rect x="816" y="24" rx="7" width="44" height="44" fill="#252423"></rect>
  <text x="838" y="52.16" text-anchor="middle" fill="#e9e8e7" font-family="Arimo, sans-serif"></text>
  <rect x="864" y="24" rx="7" width="44" height="44" fill="#252423"></rect>
  <text x="886" y="52.16" text-anchor="middle" fill="#e9e8e7" font-family="Arimo, sans-serif"></text>
  <rect x="24" y="96" rx="7" width="44" height="44" fill="#454443"></rect>
  <text x="46" y="124.16" text-anchor="middle" fill="#e9e8e7" font-family="Arimo, sans-serif">Bb1</text>
  <rect x="72" y="96" rx="7" width="44" height="44" fill="#252423"></rect>
  <text x="94" y="124.16" text-anchor="middle" fill="#e9e8e7" font-family="Arimo, sans-serif"></text>
  <rect x="120" y="96" rx="7" width="44" height="44" fill="#454443"></rect>
  <text x="142" y="124.16" text-anchor="middle" fill="#e9e8e7" font-family="Arimo, sans-serif">Db1</text>
  <rect x="168" y="96" rx="7" width="44" height="44" fill="#454443"></rect>
  <text x="190" y="124.16" text-anchor="middle" fill="#e9e8e7" font-family="Arimo, sans-serif">Eb1</text>
  <rect x="216" y="96" rx="7" width="44" height="44" fill="#252423"></rect>
  <text x="238" y="124.16" text-anchor="middle" fill="#e9e8e7" font-family="Arimo, sans-serif"></text>
  <rect x="264" y="96" rx="7" width="44" height="44" fill="#454443"></rect>
  <text x="286" y="124.16" text-anchor="middle" fill="#e9e8e7" font-family="Arimo, sans-serif">Gb1</text>
  <rect x="312" y="96" rx="7" width="44" height="44" fill="#454443"></rect>
  <text x="334" y="124.16" text-anchor="middle" fill="#e9e8e7" font-family="Arimo, sans-serif">Ab1</text>
  <rect x="360" y="96" rx="7" width="44" height="44" fill="#454443"></rect>
  <text x="382" y="124.16" text-anchor="middle" fill="#e9e8e7" font-family="Arimo, sans-serif">Bb1</text>
  <rect x="408" y="96" rx="7" width="44" height="44" fill="#252423"></rect>
  <text x="430" y="124.16" text-anchor="middle" fill="#e9e8e7" font-family="Arimo, sans-serif"></text>
  <rect x="456" y="96" rx="7" width="44" height="44" fill="#454443"></rect>
  <text x="478" y="124.16" text-anchor="middle" fill="#e9e8e7" font-family="Arimo, sans-serif">Db2</text>
  <rect x="504" y="96" rx="7" width="44" height="44" fill="#454443"></rect>
  <text x="526" y="124.16" text-anchor="middle" fill="#e9e8e7" font-family="Arimo, sans-serif">Eb2</text>
  <rect x="552" y="96" rx="7" width="44" height="44" fill="#252423"></rect>
  <text x="574" y="124.16" text-anchor="middle" fill="#e9e8e7" font-family="Arimo, sans-serif"></text>
  <rect x="600" y="96" rx="7" width="44" height="44" fill="#454443"></rect>
  <text x="622" y="124.16" text-anchor="middle" fill="#e9e8e7" font-family="Arimo, sans-serif">Gb2</text>
  <rect x="648" y="96" rx="7" width="92" height="44" fill="#454443"></rect>
  <text x="694" y="124.16" text-anchor="middle" fill="#e9e8e7" font-family="Arimo, sans-serif">Ab2</text>
  <rect x="768" y="96" rx="7" width="44" height="44" fill="#454443"></rect>
  <text x="790" y="124.16" text-anchor="middle" fill="#e9e8e7" font-family="Arimo, sans-serif">Bb2</text>
  <rect x="816" y="96" rx="7" width="44" height="44" fill="#454443"></rect>
  <text x="838" y="124.16" text-anchor="middle" fill="#e9e8e7" font-family="Arimo, sans-serif">Db3</text>
  <rect x="864" y="96" rx="7" width="44" height="44" fill="#454443"></rect>
  <text x="886" y="124.16" text-anchor="middle" fill="#e9e8e7" font-family="Arimo, sans-serif">Eb3</text>
  <rect x="936" y="96" rx="7" width="44" height="44" fill="#252423"></rect>
  <text x="958" y="124.16" text-anchor="middle" fill="#e9e8e7" font-family="Arimo, sans-serif"></text>
  <rect x="984" y="96" rx="7" width="44" height="44" fill="#454443"></rect>
  <text x="1006" y="124.16" text-anchor="middle" fill="#e9e8e7" font-family="Arimo, sans-serif">Gb3</text>
  <rect x="1032" y="96" rx="7" width="44" height="44" fill="#454443"></rect>
  <text x="1054" y="124.16" text-anchor="middle" fill="#e9e8e7" font-family="Arimo, sans-serif">Ab3</text>
  <rect x="1080" y="96" rx="7" width="44" height="44" fill="#454443"></rect>
  <text x="1102" y="124.16" text-anchor="middle" fill="#e9e8e7" font-family="Arimo, sans-serif">Bb3</text>
  <rect x="24" y="144" rx="7" width="68" height="44" fill="#656463"></rect>
  <text x="58" y="172.16" text-anchor="middle" fill="#e9e8e7" font-family="Arimo, sans-serif">B1</text>
  <rect x="96" y="144" rx="7" width="44" height="44" fill="#656463"></rect>
  <text x="118" y="172.16" text-anchor="middle" fill="#e9e8e7" font-family="Arimo, sans-serif">C1</text>
  <rect x="144" y="144" rx="7" width="44" height="44" fill="#656463"></rect>
  <text x="166" y="172.16" text-anchor="middle" fill="#e9e8e7" font-family="Arimo, sans-serif">D1</text>
  <rect x="192" y="144" rx="7" width="44" height="44" fill="#656463"></rect>
  <text x="214" y="172.16" text-anchor="middle" fill="#e9e8e7" font-family="Arimo, sans-serif">E1</text>
  <rect x="240" y="144" rx="7" width="44" height="44" fill="#656463"></rect>
  <text x="262" y="172.16" text-anchor="middle" fill="#e9e8e7" font-family="Arimo, sans-serif">F1</text>
  <rect x="288" y="144" rx="7" width="44" height="44" fill="#656463"></rect>
  <text x="310" y="172.16" text-anchor="middle" fill="#e9e8e7" font-family="Arimo, sans-serif">G1</text>
  <rect x="336" y="144" rx="7" width="44" height="44" fill="#656463"></rect>
  <text x="358" y="172.16" text-anchor="middle" fill="#e9e8e7" font-family="Arimo, sans-serif">A1</text>
  <rect x="384" y="144" rx="7" width="44" height="44" fill="#656463"></rect>
  <text x="406" y="172.16" text-anchor="middle" fill="#e9e8e7" font-family="Arimo, sans-serif">B1</text>
  <rect x="432" y="144" rx="7" width="44" height="44" fill="#656463"></rect>
  <text x="454" y="172.16" text-anchor="middle" fill="#e9e8e7" font-family="Arimo, sans-serif">C2</text>
  <rect x="480" y="144" rx="7" width="44" height="44" fill="#656463"></rect>
  <text x="502" y="172.16" text-anchor="middle" fill="#e9e8e7" font-family="Arimo, sans-serif">D2</text>
  <rect x="528" y="144" rx="7" width="44" height="44" fill="#656463"></rect>
  <text x="550" y="172.16" text-anchor="middle" fill="#e9e8e7" font-family="Arimo, sans-serif">E2</text>
  <rect x="576" y="144" rx="7" width="44" height="44" fill="#656463"></rect>
  <text x="598" y="172.16" text-anchor="middle" fill="#e9e8e7" font-family="Arimo, sans-serif">F2</text>
  <rect x="624" y="144" rx="7" width="44" height="44" fill="#656463"></rect>
  <text x="646" y="172.16" text-anchor="middle" fill="#e9e8e7" font-family="Arimo, sans-serif">G2</text>
  <rect x="672" y="144" rx="7" width="68" height="44" fill="#656463"></rect>
  <text x="706" y="172.16" text-anchor="middle" fill="#e9e8e7" font-family="Arimo, sans-serif">A2</text>
  <rect x="768" y="144" rx="7" width="44" height="44" fill="#656463"></rect>
  <text x="790" y="172.16" text-anchor="middle" fill="#e9e8e7" font-family="Arimo, sans-serif">B2</text>
  <rect x="816" y="144" rx="7" width="44" height="44" fill="#656463"></rect>
  <text x="838" y="172.16" text-anchor="middle" fill="#e9e8e7" font-family="Arimo, sans-serif">C3</text>
  <rect x="864" y="144" rx="7" width="44" height="44" fill="#656463"></rect>
  <text x="886" y="172.16" text-anchor="middle" fill="#e9e8e7" font-family="Arimo, sans-serif">D3</text>
  <rect x="936" y="144" rx="7" width="44" height="44" fill="#656463"></rect>
  <text x="958" y="172.16" text-anchor="middle" fill="#e9e8e7" font-family="Arimo, sans-serif">E3</text>
  <rect x="984" y="144" rx="7" width="44" height="44" fill="#656463"></rect>
  <text x="1006" y="172.16" text-anchor="middle" fill="#e9e8e7" font-family="Arimo, sans-serif">F3</text>
  <rect x="1032" y="144" rx="7" width="44" height="44" fill="#656463"></rect>
  <text x="1054" y="172.16" text-anchor="middle" fill="#e9e8e7" font-family="Arimo, sans-serif">G3</text>
  <rect x="1080" y="144" rx="7" width="44" height="44" fill="#656463"></rect>
  <text x="1102" y="172.16" text-anchor="middle" fill="#e9e8e7" font-family="Arimo, sans-serif">A3</text>
  <rect x="24" y="192" rx="7" width="80" height="44" fill="#252423"></rect>
  <text x="64" y="220.16" text-anchor="middle" fill="#e9e8e7" font-family="Arimo, sans-serif"></text>
  <rect x="108" y="192" rx="7" width="44" height="44" fill="#252423"></rect>
  <text x="130" y="220.16" text-anchor="middle" fill="#e9e8e7" font-family="Arimo, sans-serif"></text>
  <rect x="156" y="192" rx="7" width="44" height="44" fill="#454443"></rect>
  <text x="178" y="220.16" text-anchor="middle" fill="#e9e8e7" font-family="Arimo, sans-serif">Db0</text>
  <rect x="204" y="192" rx="7" width="44" height="44" fill="#454443"></rect>
  <text x="226" y="220.16" text-anchor="middle" fill="#e9e8e7" font-family="Arimo, sans-serif">Eb0</text>
  <rect x="252" y="192" rx="7" width="44" height="44" fill="#252423"></rect>
  <text x="274" y="220.16" text-anchor="middle" fill="#e9e8e7" font-family="Arimo, sans-serif"></text>
  <rect x="300" y="192" rx="7" width="44" height="44" fill="#454443"></rect>
  <text x="322" y="220.16" text-anchor="middle" fill="#e9e8e7" font-family="Arimo, sans-serif">Gb0</text>
  <rect x="348" y="192" rx="7" width="44" height="44" fill="#454443"></rect>
  <text x="370" y="220.16" text-anchor="middle" fill="#e9e8e7" font-family="Arimo, sans-serif">Ab0</text>
  <rect x="396" y="192" rx="7" width="44" height="44" fill="#454443"></rect>
  <text x="418" y="220.16" text-anchor="middle" fill="#e9e8e7" font-family="Arimo, sans-serif">Bb0</text>
  <rect x="444" y="192" rx="7" width="44" height="44" fill="#252423"></rect>
  <text x="466" y="220.16" text-anchor="middle" fill="#e9e8e7" font-family="Arimo, sans-serif"></text>
  <rect x="492" y="192" rx="7" width="44" height="44" fill="#454443"></rect>
  <text x="514" y="220.16" text-anchor="middle" fill="#e9e8e7" font-family="Arimo, sans-serif">Db1</text>
  <rect x="540" y="192" rx="7" width="44" height="44" fill="#454443"></rect>
  <text x="562" y="220.16" text-anchor="middle" fill="#e9e8e7" font-family="Arimo, sans-serif">Eb1</text>
  <rect x="588" y="192" rx="7" width="44" height="44" fill="#252423"></rect>
  <text x="610" y="220.16" text-anchor="middle" fill="#e9e8e7" font-family="Arimo, sans-serif"></text>
  <rect x="636" y="192" rx="7" width="104" height="44" fill="#252423"></rect>
  <text x="688" y="220.16" text-anchor="middle" fill="#e9e8e7" font-family="Arimo, sans-serif"></text>
  <rect x="936" y="192" rx="7" width="44" height="44" fill="#252423"></rect>
  <text x="958" y="220.16" text-anchor="middle" fill="#e9e8e7" font-family="Arimo, sans-serif"></text>
  <rect x="984" y="192" rx="7" width="44" height="44" fill="#252423"></rect>
  <text x="1006" y="220.16" text-anchor="middle" fill="#e9e8e7" font-family="Arimo, sans-serif"></text>
  <rect x="1032" y="192" rx="7" width="44" height="44" fill="#252423"></rect>
  <text x="1054" y="220.16" text-anchor="middle" fill="#e9e8e7" font-family="Arimo, sans-serif"></text>
  <rect x="24" y="240" rx="7" width="104" height="44" fill="#656463"></rect>
  <text x="76" y="268.16" text-anchor="middle" fill="#e9e8e7" font-family="Arimo, sans-serif">B-1</text>
  <rect x="132" y="240" rx="7" width="44" height="44" fill="#656463"></rect>
  <text x="154" y="268.16" text-anchor="middle" fill="#e9e8e7" font-family="Arimo, sans-serif">C0</text>
  <rect x="180" y="240" rx="7" width="44" height="44" fill="#656463"></rect>
  <text x="202" y="268.16" text-anchor="middle" fill="#e9e8e7" font-family="Arimo, sans-serif">D0</text>
  <rect x="228" y="240" rx="7" width="44" height="44" fill="#656463"></rect>
  <text x="250" y="268.16" text-anchor="middle" fill="#e9e8e7" font-family="Arimo, sans-serif">E0</text>
  <rect x="276" y="240" rx="7" width="44" height="44" fill="#656463"></rect>
  <text x="298" y="268.16" text-anchor="middle" fill="#e9e8e7" font-family="Arimo, sans-serif">F0</text>
  <rect x="324" y="240" rx="7" width="44" height="44" fill="#656463"></rect>
  <text x="346" y="268.16" text-anchor="middle" fill="#e9e8e7" font-family="Arimo, sans-serif">G0</text>
  <rect x="372" y="240" rx="7" width="44" height="44" fill="#656463"></rect>
  <text x="394" y="268.16" text-anchor="middle" fill="#e9e8e7" font-family="Arimo, sans-serif">A1</text>
  <rect x="420" y="240" rx="7" width="44" height="44" fill="#656463"></rect>
  <text x="442" y="268.16" text-anchor="middle" fill="#e9e8e7" font-family="Arimo, sans-serif">B1</text>
  <rect x="468" y="240" rx="7" width="44" height="44" fill="#656463"></rect>
  <text x="490" y="268.16" text-anchor="middle" fill="#e9e8e7" font-family="Arimo, sans-serif">C1</text>
  <rect x="516" y="240" rx="7" width="44" height="44" fill="#656463"></rect>
  <text x="538" y="268.16" text-anchor="middle" fill="#e9e8e7" font-family="Arimo, sans-serif">D1</text>
  <rect x="564" y="240" rx="7" width="44" height="44" fill="#656463"></rect>
  <text x="586" y="268.16" text-anchor="middle" fill="#e9e8e7" font-family="Arimo, sans-serif">E1</text>
  <rect x="612" y="240" rx="7" width="128" height="44" fill="#656463"></rect>
  <text x="676" y="268.16" text-anchor="middle" fill="#e9e8e7" font-family="Arimo, sans-serif">F1</text>
  <rect x="816" y="240" rx="7" width="44" height="44" fill="#356433"></rect>
  <text x="838" y="268.16" text-anchor="middle" fill="#e9e8e7" font-family="Arimo, sans-serif">+12</text>
  <rect x="936" y="240" rx="7" width="44" height="44" fill="#252423"></rect>
  <text x="958" y="268.16" text-anchor="middle" fill="#e9e8e7" font-family="Arimo, sans-serif"></text>
  <rect x="984" y="240" rx="7" width="44" height="44" fill="#252423"></rect>
  <text x="1006" y="268.16" text-anchor="middle" fill="#e9e8e7" font-family="Arimo, sans-serif"></text>
  <rect x="1032" y="240" rx="7" width="44" height="44" fill="#252423"></rect>
  <text x="1054" y="268.16" text-anchor="middle" fill="#e9e8e7" font-family="Arimo, sans-serif"></text>
  <rect x="1080" y="240" rx="7" width="44" height="44" fill="#252423"></rect>
  <text x="1102" y="268.16" text-anchor="middle" fill="#e9e8e7" font-family="Arimo, sans-serif"></text>
  <rect x="24" y="288" rx="7" width="68" height="44" fill="#252423"></rect>
  <text x="58" y="316.16" text-anchor="middle" fill="#e9e8e7" font-family="Arimo, sans-serif"></text>
  <rect x="96" y="288" rx="7" width="44" height="44" fill="#252423"></rect>
  <text x="118" y="316.16" text-anchor="middle" fill="#e9e8e7" font-family="Arimo, sans-serif"></text>
  <rect x="144" y="288" rx="7" width="68" height="44" fill="#252423"></rect>
  <text x="178" y="316.16" text-anchor="middle" fill="#e9e8e7" font-family="Arimo, sans-serif"></text>
  <rect x="216" y="288" rx="7" width="284" height="44" fill="#454443"></rect>
  <text x="358" y="316.16" text-anchor="middle" fill="#e9e8e7" font-family="Arimo, sans-serif">Sustain</text>
  <rect x="504" y="288" rx="7" width="68" height="44" fill="#252423"></rect>
  <text x="538" y="316.16" text-anchor="middle" fill="#e9e8e7" font-family="Arimo, sans-serif"></text>
  <rect x="576" y="288" rx="7" width="44" height="44" fill="#252423"></rect>
  <text x="598" y="316.16" text-anchor="middle" fill="#e9e8e7" font-family="Arimo, sans-serif"></text>
  <rect x="624" y="288" rx="7" width="44" height="44" fill="#252423"></rect>
  <text x="646" y="316.16" text-anchor="middle" fill="#e9e8e7" font-family="Arimo, sans-serif"></text>
  <rect x="672" y="288" rx="7" width="68" height="44" fill="#252423"></rect>
  <text x="706" y="316.16" text-anchor="middle" fill="#e9e8e7" font-family="Arimo, sans-serif"></text>
  <rect x="768" y="288" rx="7" width="44" height="44" fill="#356433"></rect>
  <text x="790" y="316.16" text-anchor="middle" fill="#e9e8e7" font-family="Arimo, sans-serif">-1</text>
  <rect x="816" y="288" rx="7" width="44" height="44" fill="#356433"></rect>
  <text x="838" y="316.16" text-anchor="middle" fill="#e9e8e7" font-family="Arimo, sans-serif">-12</text>
  <rect x="864" y="288" rx="7" width="44" height="44" fill="#356433"></rect>
  <text x="886" y="316.16" text-anchor="middle" fill="#e9e8e7" font-family="Arimo, sans-serif">+1</text>
  <rect x="936" y="288" rx="7" width="92" height="44" fill="#252423"></rect>
  <text x="982" y="316.16" text-anchor="middle" fill="#e9e8e7" font-family="Arimo, sans-serif"></text>
  <rect x="1032" y="288" rx="7" width="44" height="44" fill="#252423"></rect>
  <text x="1054" y="316.16" text-anchor="middle" fill="#e9e8e7" font-family="Arimo, sans-serif"></text>
</svg>